<svg xmlns="http://www.w3.org/2000/svg" height="64" width="64.2" viewBox="0 0 64.200005 64"><path d="M32 41c5 0 9-4 9-9s-4-9-9-9-9 4-9 9 4 9 9 9zm0-16c3.9 0 7 3.1 7 7s-3.1 7-7 7-7-3.1-7-7 3.1-7 7-7z" fill="#f55"/><path d="M6.8 42c-1.5 5.7-.8 10.4 2 13.2 1.9 1.9 4.5 2.8 7.7 2.8 1.7 0 3.6-.3 5.6-.8 2.7 4.3 6.2 6.8 10 6.8s7.3-2.5 10-6.8c2 .5 3.9.8 5.6.8 3.2 0 5.8-.9 7.7-2.8 3-3 3.5-7.7 2-13.3 4.3-2.7 6.8-6.2 6.8-9.9s-2.5-7.2-6.8-9.9c1.5-5.5.9-10.3-2-13.3-2.8-2.8-7.5-3.5-13.2-2C39.5 2.5 36 0 32.2 0s-7.3 2.5-10 6.8c-5.7-1.5-10.4-.9-13.2 2-3 3-3.5 7.7-2 13.3-4.5 2.7-7 6.1-7 9.9 0 3.8 2.5 7.3 6.8 10zm3.4 11.8C8 51.6 7.4 47.8 8.6 43c2.6 1.4 5.6 2.5 9 3.3.8 3.4 2 6.5 3.3 9-4.7 1.3-8.4.7-10.7-1.5zm5.9-18.2c-.9-1.2-1.7-2.4-2.5-3.6.8-1.2 1.6-2.4 2.5-3.6-.1 1.2-.1 2.4-.1 3.6 0 1.2 0 2.4.1 3.6zm-3.6-5.5c-1.4-2.4-2.5-4.8-3.2-7.1 2.2-1.2 4.9-2.3 7.9-3.1-.3 1.6-.6 3.2-.8 4.9-1.4 1.7-2.8 3.5-3.9 5.3zm3.9 9.1c.2 1.7.4 3.3.7 4.9-3-.8-5.7-1.9-8-3.1.8-2.3 1.8-4.7 3.2-7.1 1.3 1.8 2.6 3.6 4.1 5.3zm5.4-17.4c1.2-1.2 2.5-2.4 3.8-3.5 2.1-.2 4.2-.3 6.4-.3s4.3.1 6.4.3c1.3 1.1 2.6 2.2 3.8 3.5 1.2 1.2 2.4 2.5 3.5 3.8.2 2.1.3 4.2.3 6.4s-.1 4.3-.3 6.4a62.988 62.988 0 0 1-7.3 7.3c-2.1.2-4.2.3-6.4.3s-4.3-.1-6.4-.3c-1.3-1.1-2.6-2.2-3.8-3.5-1.2-1.2-2.4-2.5-3.5-3.8-.2-2.1-.3-4.2-.3-6.4s.1-4.3.3-6.4c1.1-1.3 2.3-2.6 3.5-3.8zm-3 .2c.2-.9.3-1.8.5-2.7.9-.2 1.8-.4 2.7-.5-.6.5-1.1 1-1.6 1.6L18.8 22zm9.6-5.9c1.2-.9 2.4-1.7 3.6-2.5 1.2.8 2.4 1.6 3.6 2.5-1.2-.1-2.4-.1-3.6-.1-1.2 0-2.4 0-3.6.1zm13.5 2.7c.9.2 1.8.3 2.7.5.2.9.4 1.8.5 2.7-.5-.5-1-1.1-1.6-1.6-.5-.5-1-1.1-1.6-1.6zM45.2 42c-.2.9-.3 1.8-.5 2.7-.9.2-1.8.4-2.7.5.6-.5 1.1-1 1.7-1.6.4-.5 1-1.1 1.5-1.6zm-9.6 5.9c-1.2.9-2.4 1.7-3.6 2.5-1.2-.8-2.4-1.6-3.6-2.5 1.2.1 2.4.1 3.6.1 1.2 0 2.4 0 3.6-.1zm-13.5-2.7c-.9-.2-1.8-.3-2.7-.5-.2-.9-.4-1.8-.5-2.7.5.5 1 1.1 1.6 1.6.5.5 1 1.1 1.6 1.6zm.9 9.6c-1.2-2.3-2.3-4.9-3.1-7.9 1.6.3 3.2.6 4.9.8 1.7 1.5 3.5 2.8 5.3 4-2.2 1.3-4.5 2.3-6.6 3.1-.2-.1-.3-.1-.5 0zm9 7.2c-2.9 0-5.6-2-7.9-5.4 2.6-.9 5.2-2.2 7.9-3.8 2.6 1.6 5.3 2.9 7.9 3.8-2.3 3.4-5 5.4-7.9 5.4zm9-7.2c-.1 0-.3-.1-.4-.1-2.2-.8-4.4-1.8-6.6-3.1 1.8-1.2 3.6-2.5 5.3-4 1.7-.2 3.3-.4 4.9-.8-.9 3.1-2 5.7-3.2 8zm12.8-1c-2.2 2.2-6 2.8-10.8 1.6 1.4-2.6 2.5-5.6 3.3-9 3.4-.8 6.4-2 9-3.3 1.2 4.5.8 8.4-1.5 10.7zm-5.9-25.4c.9 1.2 1.7 2.4 2.5 3.6-.8 1.2-1.6 2.4-2.5 3.6.1-1.2.1-2.4.1-3.6 0-1.2 0-2.4-.1-3.6zm-.3-3.6c-.2-1.7-.4-3.3-.7-4.9 3 .8 5.7 1.9 7.9 3.1-.7 2.2-1.8 4.6-3.2 7-1.2-1.7-2.5-3.5-4-5.2zm0 14.4c1.5-1.7 2.8-3.5 4-5.3 1.4 2.4 2.5 4.8 3.2 7-2.2 1.2-4.9 2.3-7.9 3.1.3-1.5.5-3.1.7-4.8zM62 32c0 2.9-2 5.6-5.4 7.9-.9-2.5-2.2-5.2-3.8-7.9 1.6-2.7 2.9-5.4 3.8-7.9 3.4 2.3 5.4 5 5.4 7.9zM47.5 8c2.7 0 4.8.7 6.3 2.2 2.3 2.3 2.7 6.2 1.6 10.8-2.6-1.4-5.6-2.5-9-3.3-.8-3.4-2-6.5-3.3-9 1.5-.5 3-.7 4.4-.7zm-3.4 9.1c-1.6-.3-3.2-.6-4.9-.8-1.7-1.5-3.5-2.8-5.3-4 2.4-1.4 4.8-2.5 7.1-3.2 1.2 2.3 2.3 5 3.1 8zM32 2c2.9 0 5.6 2 7.9 5.4-2.6.9-5.2 2.2-7.9 3.8-2.6-1.6-5.3-2.9-7.9-3.8C26.4 4 29.1 2 32 2zm-9 7.2c.1 0 .3.1.4.1 2.2.8 4.4 1.8 6.6 3.1-1.8 1.2-3.6 2.5-5.3 4-1.7.2-3.3.4-4.9.8.9-3.1 2-5.8 3.2-8zm-12.8 1C11.7 8.7 13.8 8 16.5 8c1.4 0 2.9.2 4.5.6-1.4 2.6-2.5 5.6-3.3 9-3.4.8-6.4 2-9 3.3-1.2-4.5-.8-8.4 1.5-10.7zM7.4 24.1c.9 2.5 2.2 5.2 3.8 7.9-1.6 2.7-2.9 5.3-3.8 7.9C4 37.6 2 34.9 2 32c0-2.9 2-5.6 5.4-7.9z" fill="#f55"/></svg>