<svg xmlns="http://www.w3.org/2000/svg" viewBox="0 0 512 512"><path d="M264.828 264.527c-2.919.192-5.86.3-8.828.3-2.967 0-5.909-.108-8.828-.3v35.611h17.655v-35.611z" fill="#464655"/><path d="M264.828 264.527c69.013-4.544 123.586-61.951 123.586-132.114C388.414 59.284 329.13 0 256 0S123.586 59.284 123.586 132.414c0 70.163 54.573 127.57 123.586 132.114 2.919.192 5.86.3 8.828.3 2.967 0 5.909-.109 8.828-.301zm-105.352-88.413c-.061-.134-.118-.267-.179-.401a105.108 105.108 0 0 1-5.64-15.889 105.476 105.476 0 0 1-3.259-19.022 107.1 107.1 0 0 1-.296-11.122c1.427-56.332 46.83-101.736 103.162-103.162.909-.023 1.821-.034 2.734-.034 58.504 0 105.931 47.427 105.931 105.931S314.504 238.345 256 238.345a106.47 106.47 0 0 1-16.132-1.22 106.156 106.156 0 0 1-5.777-1.053 105.119 105.119 0 0 1-20.653-6.631 105.323 105.323 0 0 1-7.694-3.754c-.237-.128-.473-.259-.71-.39a103.375 103.375 0 0 1-4.827-2.826 106.136 106.136 0 0 1-6.077-4.067c-14.941-10.771-26.966-25.337-34.654-42.29z" fill="#707384"/><path d="M234.091 236.071zm-22.774-7.592zm11.993 4.717zm16.558 3.928zm-89.469-96.322zm54.636 84.493zm-45.559-49.181c7.688 16.953 19.713 31.519 34.656 42.29-14.943-10.771-26.968-25.337-34.656-42.29zm25.903-43.7c0 52.474 38.195 95.922 88.276 104.343-5.753.968-11.626 1.588-17.655 1.588 58.504 0 105.931-47.427 105.931-105.931S314.504 26.483 256 26.483c6.029 0 11.902.621 17.655 1.588-50.081 8.421-88.276 51.867-88.276 104.343zM317.793 92.69c0 17.064-13.833 30.897-30.897 30.897s-30.897-13.833-30.897-30.897 13.833-30.897 30.897-30.897 30.897 13.833 30.897 30.897zM200.209 222.471zm-46.552-62.646zm5.64 15.888z" fill="#b9ebff"/><path d="M200.209 222.471a104.207 104.207 0 0 0 4.827 2.826l.71.39a106.878 106.878 0 0 0 7.694 3.754 105.11 105.11 0 0 0 21.711 6.848c1.561.312 3.134.594 4.719.836a106.656 106.656 0 0 0 16.13 1.219c6.029 0 11.902-.621 17.655-1.588-50.081-8.422-88.276-51.868-88.276-104.343s38.195-95.922 88.276-104.343c-5.753-.967-11.626-1.588-17.655-1.588-.914 0-1.825.011-2.734.034-56.332 1.427-101.736 46.83-103.162 103.162a108.125 108.125 0 0 0 .296 11.122 105.416 105.416 0 0 0 3.991 21.624 105.263 105.263 0 0 0 4.908 13.287c.06.134.118.267.179.401 7.688 16.953 19.713 31.519 34.656 42.29.449.323.902.642 1.355.959a104.397 104.397 0 0 0 4.72 3.11z" fill="#98d2eb"/><circle cx="286.897" cy="92.69" r="30.897" fill="#fff"/><path d="M229.876 497.903zm.224-184.538zM247.172 512zm-5.843-210.851zm-11.453 196.754c1.411 6.895 6.842 12.328 13.738 13.738a17.675 17.675 0 0 1-13.738-13.738zM256 317.793v176.552c0 8.217 5.64 15.062 13.241 17.031a19.256 19.256 0 0 1-3.101.558c9.135-.674 16.342-8.281 16.342-17.589V317.793c0-9.306-7.207-16.914-16.341-17.589 1.062.097 2.092.297 3.1.558-7.601 1.969-13.241 8.814-13.241 17.031zm-12.386-17.296z" fill="#707384"/><path d="M247.172 300.138c-1.218 0-2.409.124-3.559.359a17.61 17.61 0 0 0-2.285.652 17.677 17.677 0 0 0-10.901 11.075c-.125.374-.228.756-.328 1.14a17.639 17.639 0 0 0-.583 4.429v176.552c0 1.219.124 2.409.359 3.559 1.411 6.895 6.842 12.328 13.738 13.738 1.15.235 2.339.359 3.559.359h17.655c.444 0 .881-.026 1.313-.066a19.407 19.407 0 0 0 3.101-.558c-7.601-1.97-13.241-8.815-13.241-17.032V317.793c0-8.217 5.64-15.062 13.241-17.031a19.244 19.244 0 0 0-3.1-.558c-.433-.04-.87-.066-1.314-.066h-17.655z" fill="#5b5c6c"/></svg>