<svg xmlns="http://www.w3.org/2000/svg" viewBox="0 0 512 512"><path d="M196.862 196.758a158.294 158.294 0 0 1-1.495-9.816c-.039-.32-.073-.641-.11-.961a163.147 163.147 0 0 1-.47-4.72 164.075 164.075 0 0 1-.228-3.081c-.032-.491-.066-.982-.094-1.475a162.853 162.853 0 0 1-.14-3.142c-.017-.454-.039-.905-.052-1.359a162.708 162.708 0 0 1-.066-4.48c0-1.498.025-2.991.066-4.48.012-.455.035-.907.052-1.361.038-1.049.082-2.097.14-3.14.028-.493.062-.984.094-1.476a163.24 163.24 0 0 1 .347-4.427c.105-1.127.223-2.25.351-3.37.038-.321.072-.643.11-.964C200.585 105.233 223.192 67.32 256 41.953c-26.854-20.762-60.533-33.126-97.103-33.126C71.14 8.828 0 79.968 0 167.724c0 66.854 41.291 124.057 99.758 147.518 9.981-54.048 47.311-98.504 97.104-118.484z" fill="#ff5050"/><path d="M512 167.724C512 79.968 440.86 8.828 353.103 8.828c-36.57 0-70.25 12.363-97.103 33.126-32.808 25.367-55.415 63.279-60.632 106.551 5.234-43.206 27.878-80.996 60.632-106.361 37.532 29.064 61.793 74.438 61.793 125.581 0 9.92-.924 19.619-2.669 29.028 49.801 19.978 87.135 64.436 97.117 118.489C470.709 291.782 512 234.578 512 167.724zm-317.535 8.981zm.321 4.556zm-.513-9.057zm.984 13.777zm1.605 10.777c.004-.002.009-.003.013-.006-.6-3.238-1.109-6.507-1.508-9.811.398 3.306.898 6.578 1.495 9.817zm-2.537-34.873zm.233-4.618zm.348-4.427zm-.699 14.884z" fill="#5050ff"/><path d="M315.124 196.753l-.002.011c49.727 19.979 86.983 64.409 96.992 118.409-18.259 7.316-38.137 11.448-59.01 11.448-36.593 0-70.269-12.381-97.103-33.176-26.835 20.796-60.511 33.176-97.103 33.176-20.873 0-40.751-4.132-59.01-11.448 10.009-53.999 47.265-98.43 96.992-118.409l-.001-.008c-.006-.002-.01 0-.014.001-49.794 19.98-87.123 64.436-97.103 118.484a159.737 159.737 0 0 0-2.656 29.035c0 87.756 71.14 158.897 158.897 158.897S414.9 432.033 414.9 344.276c0-9.918-.917-19.619-2.655-29.034-9.985-54.054-47.32-98.512-97.121-118.489z" fill="#78ff78"/><path d="M194.906 152.84a155.847 155.847 0 0 0-.347 4.427c-.032.492-.066.983-.094 1.476a163.364 163.364 0 0 0-.14 3.14c-.017.454-.039.906-.052 1.361-.041 1.489-.066 2.982-.066 4.48s.025 2.991.066 4.48c.012.455.035.906.052 1.359.038 1.049.082 2.098.14 3.142.028.493.062.983.094 1.475a164.075 164.075 0 0 0 .347 4.428c.105 1.128.222 2.252.351 3.373.036.321.071.642.11.961a158.918 158.918 0 0 0 1.51 9.822c15.966-6.414 33.217-10.308 51.265-11.188l.099-.006c1.13-.054 2.264-.095 3.401-.126l.024-.001c.142-.003.284-.012.426-.015l.075-.001c1.273-.03 2.55-.047 3.831-.047s2.558.018 3.831.047c.175.004.35.013.525.018 1.137.031 2.271.072 3.401.126l.099.006c18.049.879 35.299 4.774 51.265 11.188l.001-.008a158.964 158.964 0 0 0 2.67-29.033c0-51.143-24.262-96.518-61.793-125.581-32.756 25.365-55.4 63.156-60.632 106.361-.039.321-.074.643-.11.964a171.035 171.035 0 0 0-.349 3.372z" fill="#ff78ff"/><path d="M252.169 185.427l-.075.001.071-.001h.004zm3.831-.048zm7.857.197c18.009.898 35.2 4.86 51.154 11.251a158.034 158.034 0 0 1-1.164 5.656 157.334 157.334 0 0 1-2.52 9.795c-9.508 32.61-29.161 60.892-55.327 81.169 26.836 20.796 60.512 33.176 97.105 33.176 20.873 0 40.751-4.132 59.01-11.448-10.009-53.999-47.265-98.43-96.992-118.409-15.967-6.417-33.217-10.311-51.266-11.19zm-15.637-.005l.023-.001-.099.006.023-.001.053-.004zm12.136-.127zm-8.688-.001l-.024.001h.001l.023-.001z" fill="#a0ffff"/><path d="M311.327 212.276a158.451 158.451 0 0 1-8.999 23.617c-.087.182-.169.366-.256.548a158.37 158.37 0 0 1-6.048 11.366c-.313.532-.65 1.049-.969 1.578-1.707 2.846-3.526 5.615-5.402 8.342-.701 1.013-1.384 2.039-2.108 3.034a159.443 159.443 0 0 1-6.35 8.188c-1.221 1.471-2.5 2.892-3.774 4.318a160.794 160.794 0 0 1-20.664 19.417c-.258.203-.521.401-.78.601-30.205-23.401-51.785-57.375-59.06-96.408 15.977-6.421 33.198-10.403 51.251-11.303l-.023.001c-18.049.879-35.299 4.774-51.265 11.188-49.727 19.979-86.983 64.409-96.992 118.409 18.258 7.316 38.136 11.448 59.009 11.448 36.593 0 70.269-12.381 97.103-33.176 26.166-20.277 45.817-48.558 55.327-81.168zM256 185.379c-1.281 0-2.558.018-3.831.047h-.006c1.276-.03 2.555-.047 3.837-.047zm57.846 17.103zm-62.201-17.038c-.001 0-.001 0 0 0a166.21 166.21 0 0 0-3.402.126l-.023.001c1.137-.056 2.28-.095 3.425-.127zm63.365 11.384z" fill="#ffff50"/><path d="M248.22 185.571l-.053.003c-18.052.899-35.273 4.882-51.251 11.303 7.275 39.034 28.856 73.009 59.06 96.408.259-.202.522-.398.78-.601a161.005 161.005 0 0 0 20.664-19.417c1.273-1.426 2.552-2.847 3.774-4.318 2.2-2.66 4.324-5.386 6.35-8.188.724-.995 1.406-2.022 2.108-3.034 1.877-2.727 3.694-5.496 5.402-8.342.319-.529.657-1.045.969-1.578a158.772 158.772 0 0 0 6.048-11.366c.087-.182.17-.366.256-.548a158.755 158.755 0 0 0 8.999-23.617l.163-.561a157.536 157.536 0 0 0 2.593-10.308c.329-1.519.643-3.046.928-4.582-15.954-6.391-33.144-10.353-51.154-11.251l-.099-.006c-1.13-.055-2.264-.095-3.401-.126-.175-.004-.35-.013-.525-.018a157.355 157.355 0 0 0-7.739.001c-.142.003-.284.012-.426.015l-.023.001c-1.143.035-2.286.074-3.423.13z" fill="#fff"/></svg>