<svg xmlns="http://www.w3.org/2000/svg" viewBox="0 0 512 512"><path d="M415.701 78.102c-5.217 0-10.313.524-15.245 1.505l-3.468 37.456a43.123 43.123 0 0 1 18.714-4.249c23.924 0 43.39 19.466 43.39 43.39v78.102c0 23.924-19.466 43.39-43.39 43.39-12.791 0-24.305-5.568-32.253-14.403l-3.732 40.297a77.592 77.592 0 0 0 35.984 8.818c43.063 0 78.102-35.034 78.102-78.102v-78.102c0-43.068-35.039-78.102-78.102-78.102z" fill="#87b45f"/><path d="M75.892 498.534c-.027-.118-.065-.232-.09-.351.024.119.063.233.09.351zm.617 2.065C78.958 507.305 85.37 512 92.794 512c-7.424 0-13.836-4.695-16.285-11.401zm118.385-23.311l2.141 19.273c.976 8.79 8.407 15.439 17.25 15.439h116.457c8.844 0 16.273-6.65 17.25-15.439l2.389-21.501a25.903 25.903 0 0 1-10.483 2.229H194.894v-.001z" class="foo" fill="#a0c869"/><path d="M197.036 496.561l-2.141-19.273H83.639c-1.883 0-3.716-.22-5.491-.603a25.75 25.75 0 0 1-4.992-1.626l2.389 21.501c.061.549.148 1.09.257 1.622.025.119.063.233.09.351.163.708.371 1.395.616 2.065C78.958 507.305 85.37 512 92.794 512h121.492c-8.843 0-16.274-6.65-17.25-15.439z" fill="#87b45f"/><path d="M396.987 117.063l3.468-37.456 4.812-51.972c.943-10.174-7.064-18.956-17.281-18.956h-249.98v205.586l1.524 16.463 19.712 9.856a8.678 8.678 0 0 1 4.797 7.761v55.384a8.679 8.679 0 0 1-8.678 8.678h-8.269l13.079 141.247c1.24 13.391 12.475 23.634 25.923 23.634h153.802c3.723 0 7.265-.809 10.483-2.229 8.407-3.708 14.543-11.722 15.439-21.405l13.895-150.066 3.732-40.297 13.542-146.228zM62.917 467.017zm-44.603-443a17.387 17.387 0 0 0-.044 3.618l9.499 102.592L18.27 27.634a17.516 17.516 0 0 1 .044-3.617zm59.834 452.668a25.918 25.918 0 0 1-6.231-2.181c.402.204.824.373 1.239.555a25.75 25.75 0 0 0 4.992 1.626z" fill="#b4e173"/><g fill="#a7d16c"><path d="M139.53 230.729l-1.524-16.465v15.702zM138.007 8.678h-.001z"/><path d="M78.148 476.685a26.06 26.06 0 0 0 5.491.603h102.456c-13.448 0-24.683-10.243-25.923-23.634l-13.079-141.247h-43.799a8.679 8.679 0 0 1-8.678-8.678v-55.383a8.675 8.675 0 0 1 4.797-7.761l21.237-10.619V8.678H35.552c-8.981 0-16.248 6.787-17.237 15.339a17.456 17.456 0 0 0-.044 3.618l9.499 102.593 29.947 323.428a25.94 25.94 0 0 0 5.201 13.363 26.115 26.115 0 0 0 8.738 7.339c.089.047.172.102.263.148a25.925 25.925 0 0 0 6.229 2.179z"/></g><path d="M125.447 227.568a8.68 8.68 0 0 1 7.761 0l4.797 2.398V8.678a8.679 8.679 0 0 0-17.356 0v221.288l4.798-2.398z" fill="#e4eaf6"/><path d="M133.208 227.568a8.68 8.68 0 0 0-7.761 0l-4.797 2.398-21.237 10.619a8.678 8.678 0 0 0-4.797 7.761v55.383a8.679 8.679 0 0 0 8.678 8.678h52.068a8.679 8.679 0 0 0 8.678-8.678v-55.383a8.675 8.675 0 0 0-4.797-7.761l-19.712-9.856-1.525-.763-4.798-2.398z" fill="#ffcd64"/></svg>